<svg width="24" height="24" viewBox="0 0 24 24" fill="none" xmlns="http://www.w3.org/2000/svg">
<path fill-rule="evenodd" clip-rule="evenodd" d="M17.3072 10.1053C19.2108 10.1053 20.784 10.6181 22.0267 11.6438C22.6451 12.1567 23.127 12.7867 23.4726 13.5338C23.8242 14.3063 24 15.1579 24 16.0886C24 17.5639 23.5908 18.7416 22.7724 19.6217C22.0389 20.4068 21.2114 20.7994 20.2899 20.7994C19.3078 20.7994 18.7683 20.353 18.6713 19.4602C18.065 20.353 17.2466 20.7994 16.216 20.7994C15.3855 20.7994 14.7277 20.5588 14.2428 20.0776C13.7153 19.5584 13.4516 18.8461 13.4516 17.9406C13.4516 17.3391 13.5714 16.7487 13.8108 16.1694C14.0503 15.59 14.3822 15.0882 14.8066 14.664C15.6128 13.8599 16.6495 13.4579 17.9165 13.4579C18.8743 13.4579 19.7685 13.613 20.5991 13.9232L19.9898 17.8742C19.9292 18.2604 19.8989 18.5421 19.8989 18.7194C19.8989 19.1563 20.0838 19.3748 20.4536 19.3748C20.9386 19.3748 21.372 19.0803 21.7539 18.4915C22.2207 17.776 22.4541 16.9276 22.4541 15.9462C22.4541 14.5975 21.9994 13.5465 21.0901 12.793C20.0838 11.9636 18.8349 11.5489 17.3436 11.5489C16.1918 11.5489 15.143 11.8338 14.1973 12.4036C13.3061 12.9418 12.6363 13.67 12.1877 14.588C11.83 15.3352 11.6511 16.1646 11.6511 17.0764C11.6511 18.8049 12.2513 20.1757 13.4516 21.1888C14.5065 22.0815 15.8462 22.5279 17.4709 22.5279C18.3985 22.5279 19.3805 22.3506 20.4172 21.996L20.6809 23.4586C19.5836 23.8195 18.4651 24 17.3254 24C15.2279 24 13.5214 23.389 12.2058 22.167C10.8055 20.8753 10.1053 19.1658 10.1053 17.0384C10.1053 15.0313 10.7691 13.3819 12.0967 12.0902C13.4668 10.7669 15.2036 10.1053 17.3072 10.1053ZM17.9438 14.778C17.5982 14.778 17.2557 14.8682 16.9162 15.0487C16.5767 15.2291 16.2858 15.4776 16.0433 15.7942C15.5462 16.4337 15.2976 17.1492 15.2976 17.9406C15.2976 18.3839 15.4067 18.7337 15.625 18.9901C15.8432 19.2465 16.1403 19.3748 16.5161 19.3748C17.0617 19.3748 17.5134 19.1405 17.871 18.6719C18.059 18.4313 18.2075 17.966 18.3166 17.2758L18.6985 14.911C18.3894 14.8223 18.1378 14.778 17.9438 14.778ZM22.7368 0L22.737 11.128C22.0101 10.4304 21.155 9.86525 20.2106 9.47141L20.2105 3.78947L13.3325 9.73127C12.541 10.1342 11.8236 10.6618 11.206 11.2881L2.52632 3.78947V15.1579L9.06182 15.1578C8.91814 15.7661 8.8421 16.4005 8.8421 17.0526C8.8421 17.2652 8.85018 17.4758 8.86604 17.6843L0 17.6842V0H22.7368ZM18 2.52632H4.73684L11.3684 8.21053L18 2.52632Z" fill="#090909"/>
</svg>
