<svg width="24" height="24" viewBox="0 0 24 24" fill="none" xmlns="http://www.w3.org/2000/svg">
<path d="M23.9 7.1C23.8 5.8 23.6 5 23.3 4.2C23.1 3.4 22.7 2.7 22 2C21.3 1.3 20.7 0.9 19.9 0.6C19.1 0.3 18.3 0.1 17 0C15.7 0 15.3 0 12 0C8.7 0 8.3 0 7.1 0.1C5.8 0.1 4.9 0.3 4.1 0.6C3.4 0.9 2.7 1.3 2 2C1.3 2.7 0.9 3.4 0.6 4.1C0.3 4.9 0.1 5.8 0.1 7.1C0 8.3 0 8.7 0 12C0 15.3 0 15.7 0.1 16.9C0.2 18.2 0.4 19 0.7 19.8C0.9 20.6 1.3 21.3 2 22C2.7 22.7 3.3 23.1 4.1 23.4C4.9 23.7 5.7 23.9 7 24C8.3 24 8.7 24 12 24C15.3 24 15.7 24 16.9 23.9C18.2 23.8 19 23.6 19.8 23.3C20.6 23 21.3 22.6 21.9 21.9C22.5 21.2 23 20.6 23.3 19.8C23.6 19 23.8 18.2 23.9 16.9C24 15.7 24 15.3 24 12C24 8.7 24 8.3 23.9 7.1ZM21.8 16.8C21.7 18 21.6 18.6 21.4 19C21.2 19.6 20.9 20 20.5 20.4C20.1 20.8 19.7 21.1 19.1 21.3C18.7 21.5 18 21.7 16.9 21.7C15.6 21.8 15.3 21.8 12.1 21.8C8.9 21.8 8.5 21.8 7.3 21.7C6.1 21.6 5.5 21.5 5.1 21.3C4.5 21.1 4.1 20.8 3.7 20.4C3.3 20 3 19.6 2.8 19C2.6 18.6 2.4 17.9 2.4 16.8C2.3 15.5 2.3 15.2 2.3 12C2.3 8.8 2.3 8.4 2.4 7.2C2.3 6 2.5 5.3 2.6 4.9C2.8 4.3 3.1 3.9 3.5 3.5C3.9 3.1 4.3 2.8 4.9 2.6C5.3 2.5 6 2.3 7.2 2.2C8.4 2.2 8.8 2.2 12 2.2C15.2 2.2 15.6 2.2 16.8 2.3C18 2.4 18.6 2.5 19 2.7C19.6 2.9 20 3.2 20.4 3.6C20.8 4 21.1 4.4 21.3 5C21.5 5.4 21.7 6.1 21.7 7.2C21.8 8.5 21.8 8.8 21.8 12C21.8 15.2 21.8 15.6 21.8 16.8Z" fill="#090909"/>
<path d="M12 6C8.7 6 6 8.7 6 12C6 15.3 8.7 18 12 18C15.3 18 18 15.3 18 12C18 8.7 15.3 6 12 6ZM12 15.9C9.8 15.9 8.1 14.2 8.1 12C8.1 9.8 9.8 8.1 12 8.1C14.2 8.1 15.9 9.8 15.9 12C15.9 14.2 14.2 15.9 12 15.9Z" fill="#090909"/>
<path d="M18.5 7.5C19.3284 7.5 20 6.82843 20 6C20 5.17157 19.3284 4.5 18.5 4.5C17.6716 4.5 17 5.17157 17 6C17 6.82843 17.6716 7.5 18.5 7.5Z" fill="#090909"/>
</svg>
