<svg width="24" height="27" viewBox="0 0 24 27" fill="none" xmlns="http://www.w3.org/2000/svg">
<path d="M6.81383 1.06446C6.81383 1.06446 6.41133 0.119995 5.7966 0.119995C5.19163 0.119995 4.87695 0.399792 4.66716 0.592839C4.45738 0.785886 0.947086 3.67549 0.947086 3.67549C0.947086 3.67549 -0.0738018 4.56863 0.00425883 6.24863C0.0701225 7.92863 0.398221 10.3197 2.10092 13.6504C3.79142 16.9738 8.02255 22.0516 10.6961 23.8367C10.6961 23.8367 13.1733 25.7403 15.4786 26.5137C16.1482 26.7251 17.4874 27 17.7997 27C18.1168 27 18.6766 27 19.3194 26.5296C19.9732 26.0543 23.6408 23.1 23.6408 23.1C23.6408 23.1 24.5385 22.2874 23.4956 21.343C22.4479 20.3985 19.2669 18.2982 18.5864 17.7459C17.9045 17.1851 16.9337 17.4319 16.5141 17.8119C16.0957 18.1943 15.3481 18.8236 15.2566 18.903C15.12 19.0081 14.7455 19.349 14.326 19.1791C13.7917 18.9678 11.6011 17.7765 9.57035 14.9932C7.55175 12.2123 7.32976 11.3033 7.0285 10.321C6.9774 10.1757 6.9767 10.0175 7.0265 9.87183C7.0763 9.72616 7.17369 9.60157 7.30293 9.51822C7.60542 9.30807 8.719 8.37826 8.719 8.37826C8.719 8.37826 9.43984 7.66594 9.13858 6.82655C8.83731 5.98717 6.81383 1.06446 6.81383 1.06446Z" fill="#090909"/>
</svg>
